<?xml version="1.0" encoding="UTF-8"?>
<svg viewBox="0 0 900 500" xmlns="http://www.w3.org/2000/svg">
    <defs>
        <!-- Gradients -->
        <linearGradient id="bgGradient" x1="0%" y1="0%" x2="100%" y2="100%">
            <stop offset="0%" stop-color="#1A237E" />
            <stop offset="100%" stop-color="#0D47A1" />
        </linearGradient>
        <linearGradient id="moduleGradient" x1="0%" y1="0%" x2="0%" y2="100%">
            <stop offset="0%" stop-color="#4CAF50" />
            <stop offset="100%" stop-color="#2E7D32" />
        </linearGradient>
        <linearGradient id="dataGradient" x1="0%" y1="0%" x2="0%" y2="100%">
            <stop offset="0%" stop-color="#FF9800" />
            <stop offset="100%" stop-color="#F57C00" />
        </linearGradient>
        <linearGradient id="processingGradient" x1="0%" y1="0%" x2="0%" y2="100%">
            <stop offset="0%" stop-color="#E91E63" />
            <stop offset="100%" stop-color="#C2185B" />
        </linearGradient>
        <linearGradient id="outputGradient" x1="0%" y1="0%" x2="0%" y2="100%">
            <stop offset="0%" stop-color="#00BCD4" />
            <stop offset="100%" stop-color="#0097A7" />
        </linearGradient>

        <!-- Filters -->
        <filter id="glow" x="-20%" y="-20%" width="140%" height="140%">
            <feGaussianBlur stdDeviation="5" result="blur" />
            <feComposite in="SourceGraphic" in2="blur" operator="over" />
        </filter>
        <filter id="shadow" x="-10%" y="-10%" width="120%" height="120%">
            <feDropShadow dx="2" dy="2" stdDeviation="2" flood-color="#000" flood-opacity="0.3" />
        </filter>

        <!-- Patterns -->
        <pattern id="circuitPattern" width="100" height="100" patternUnits="userSpaceOnUse">
            <path d="M 10,10 L 40,10 L 40,40 L 70,40 L 70,70 L 40,70 L 40,100 M 70,10 L 100,10 M 10,40 L 0,40 M 10,70 L 40,70 L 40,100 M 70,70 L 100,70" fill="none" stroke="#FFFFFF" stroke-width="1" opacity="0.1" />
        </pattern>

        <!-- Symbol for data flow -->
        <symbol id="dataFlow" viewBox="0 0 100 20">
            <path d="M 0,10 L 100,10" stroke-width="5" stroke-linecap="round" />
            <circle cx="50" cy="10" r="5">
                <animate attributeName="cx" values="0;100;0" dur="3s" repeatCount="indefinite" />
            </circle>
        </symbol>

        <!-- Brain circuit pattern for AI representation -->
        <symbol id="brainCircuit" viewBox="0 0 100 100">
            <ellipse cx="50" cy="50" rx="40" ry="30" fill="none" stroke="#FFFFFF" stroke-width="1" />
            <path d="M 50,20 L 50,80 M 30,30 L 70,30 M 20,50 L 80,50 M 30,70 L 70,70" stroke="#FFFFFF" stroke-width="1" fill="none" />
            <circle cx="30" cy="30" r="3" fill="#FFFFFF" />
            <circle cx="50" cy="30" r="3" fill="#FFFFFF" />
            <circle cx="70" cy="30" r="3" fill="#FFFFFF" />
            <circle cx="30" cy="50" r="3" fill="#FFFFFF" />
            <circle cx="50" cy="50" r="3" fill="#FFFFFF" />
            <circle cx="80" cy="50" r="3" fill="#FFFFFF" />
            <circle cx="20" cy="50" r="3" fill="#FFFFFF" />
            <circle cx="30" cy="70" r="3" fill="#FFFFFF" />
            <circle cx="50" cy="70" r="3" fill="#FFFFFF" />
            <circle cx="70" cy="70" r="3" fill="#FFFFFF" />
            <circle cx="50" cy="20" r="3" fill="#FFFFFF" />
            <circle cx="50" cy="80" r="3" fill="#FFFFFF" />
        </symbol>

        <!-- Neural network node -->
        <symbol id="neuralNode" viewBox="0 0 30 30">
            <circle cx="15" cy="15" r="10" fill="#FFFFFF" opacity="0.7" />
            <circle cx="15" cy="15" r="5" fill="#FFFFFF" />
        </symbol>
    </defs>

    <!-- Background -->
    <rect width="900" height="500" fill="url(#bgGradient)" />
    <rect width="900" height="500" fill="url(#circuitPattern)" />

    <!-- Title -->
    <g font-family="Arial" font-weight="bold">
        <rect x="200" y="20" width="500" height="50" rx="10" ry="10" fill="#FFFFFF" opacity="0.1" />
        <text x="450" y="55" text-anchor="middle" font-size="24" fill="white">AI CONTROL SYSTEM ARCHITECTURE</text>
    </g>

    <!-- Core AI processing unit -->
    <g transform="translate(450, 250)">
        <circle cx="0" cy="0" r="80" fill="#311B92" stroke="#FFFFFF" stroke-width="2" filter="url(#shadow)" />
        <use href="#brainCircuit" x="-50" y="-50" width="100" height="100" opacity="0.8" />
        <text x="0" y="0" text-anchor="middle" font-family="Arial" font-size="14" font-weight="bold" fill="white">CORE AI</text>
        <text x="0" y="20" text-anchor="middle" font-family="Arial" font-size="12" fill="white">PROCESSING</text>

        <!-- Pulsing effect -->
        <circle cx="0" cy="0" r="85" fill="none" stroke="#7C4DFF" stroke-width="2">
            <animate attributeName="r" values="80;90;80" dur="3s" repeatCount="indefinite" />
            <animate attributeName="opacity" values="0.7;0.2;0.7" dur="3s" repeatCount="indefinite" />
        </circle>
    </g>

    <!-- Input modules -->
    <g transform="translate(200, 150)">
        <!-- Weather data -->
        <g transform="translate(0, 0)">
            <rect x="-70" y="-30" width="140" height="60" rx="10" ry="10" fill="url(#dataGradient)" filter="url(#shadow)" />
            <text x="0" y="0" text-anchor="middle" font-family="Arial" font-size="12" font-weight="bold" fill="white">WEATHER DATA</text>
            <text x="0" y="20" text-anchor="middle" font-family="Arial" font-size="10" fill="white">WIND, TEMP, PRECIP</text>
        </g>

        <!-- Aircraft telemetry -->
        <g transform="translate(0, 100)">
            <rect x="-70" y="-30" width="140" height="60" rx="10" ry="10" fill="url(#dataGradient)" filter="url(#shadow)" />
            <text x="0" y="0" text-anchor="middle" font-family="Arial" font-size="12" font-weight="bold" fill="white">AIRCRAFT</text>
            <text x="0" y="20" text-anchor="middle" font-family="Arial" font-size="10" fill="white">TELEMETRY</text>
        </g>

        <!-- Runway conditions -->
        <g transform="translate(0, 200)">
            <rect x="-70" y="-30" width="140" height="60" rx="10" ry="10" fill="url(#dataGradient)" filter="url(#shadow)" />
            <text x="0" y="0" text-anchor="middle" font-family="Arial" font-size="12" font-weight="bold" fill="white">RUNWAY</text>
            <text x="0" y="20" text-anchor="middle" font-family="Arial" font-size="10" fill="white">CONDITIONS</text>
        </g>
    </g>

    <!-- Output modules -->
    <g transform="translate(700, 150)">
        <!-- Trajectory optimization -->
        <g transform="translate(0, 0)">
            <rect x="-70" y="-30" width="140" height="60" rx="10" ry="10" fill="url(#outputGradient)" filter="url(#shadow)" />
            <text x="0" y="0" text-anchor="middle" font-family="Arial" font-size="12" font-weight="bold" fill="white">TRAJECTORY</text>
            <text x="0" y="20" text-anchor="middle" font-family="Arial" font-size="10" fill="white">OPTIMIZATION</text>
        </g>

        <!-- Braking control -->
        <g transform="translate(0, 100)">
            <rect x="-70" y="-30" width="140" height="60" rx="10" ry="10" fill="url(#outputGradient)" filter="url(#shadow)" />
            <text x="0" y="0" text-anchor="middle" font-family="Arial" font-size="12" font-weight="bold" fill="white">BRAKING</text>
            <text x="0" y="20" text-anchor="middle" font-family="Arial" font-size="10" fill="white">CONTROL</text>
        </g>

        <!-- Energy management -->
        <g transform="translate(0, 200)">
            <rect x="-70" y="-30" width="140" height="60" rx="10" ry="10" fill="url(#outputGradient)" filter="url(#shadow)" />
            <text x="0" y="0" text-anchor="middle" font-family="Arial" font-size="12" font-weight="bold" fill="white">ENERGY</text>
            <text x="0" y="20" text-anchor="middle" font-family="Arial" font-size="10" fill="white">MANAGEMENT</text>
        </g>
    </g>

    <!-- Processing modules around core -->
    <g>
        <!-- Machine learning -->
        <g transform="translate(450, 120)">
            <rect x="-60" y="-25" width="120" height="50" rx="10" ry="10" fill="url(#processingGradient)" filter="url(#shadow)" />
            <text x="0" y="0" text-anchor="middle" font-family="Arial" font-size="12" font-weight="bold" fill="white">MACHINE</text>
            <text x="0" y="18" text-anchor="middle" font-family="Arial" font-size="10" fill="white">LEARNING</text>
        </g>

        <!-- Predictive analytics -->
        <g transform="translate(450, 380)">
            <rect x="-60" y="-25" width="120" height="50" rx="10" ry="10" fill="url(#processingGradient)" filter="url(#shadow)" />
            <text x="0" y="0" text-anchor="middle" font-family="Arial" font-size="12" font-weight="bold" fill="white">PREDICTIVE</text>
            <text x="0" y="18" text-anchor="middle" font-family="Arial" font-size="10" fill="white">ANALYTICS</text>
        </g>

        <!-- Real-time optimization -->
        <g transform="translate(320, 250)">
            <rect x="-60" y="-25" width="120" height="50" rx="10" ry="10" fill="url(#processingGradient)" filter="url(#shadow)" />
            <text x="0" y="0" text-anchor="middle" font-family="Arial" font-size="12" font-weight="bold" fill="white">REAL-TIME</text>
            <text x="0" y="18" text-anchor="middle" font-family="Arial" font-size="10" fill="white">OPTIMIZATION</text>
        </g>

        <!-- Safety monitoring -->
        <g transform="translate(580, 250)">
            <rect x="-60" y="-25" width="120" height="50" rx="10" ry="10" fill="url(#processingGradient)" filter="url(#shadow)" />
            <text x="0" y="0" text-anchor="middle" font-family="Arial" font-size="12" font-weight="bold" fill="white">SAFETY</text>
            <text x="0" y="18" text-anchor="middle" font-family="Arial" font-size="10" fill="white">MONITORING</text>
        </g>
    </g>

    <!-- Connection lines -->
    <g>
        <!-- Input connections -->
        <g stroke="#FF9800" stroke-width="3" opacity="0.7">
            <!-- Weather data to AI -->
            <line x1="270" y1="150" x2="370" y2="250">
                <animate attributeName="stroke-dasharray" values="0,0;5,5" dur="0.1s" fill="freeze" begin="0.5s" />
                <animate attributeName="stroke-dashoffset" values="0;-20" dur="1s" repeatCount="indefinite" begin="0.6s" />
            </line>

            <!-- Aircraft telemetry to AI -->
            <line x1="270" y1="250" x2="370" y2="250">
                <animate attributeName="stroke-dasharray" values="0,0;5,5" dur="0.1s" fill="freeze" begin="0.7s" />
                <animate attributeName="stroke-dashoffset" values="0;-20" dur="1s" repeatCount="indefinite" begin="0.8s" />
            </line>

            <!-- Runway conditions to AI -->
            <line x1="270" y1="350" x2="370" y2="250">
                <animate attributeName="stroke-dasharray" values="0,0;5,5" dur="0.1s" fill="freeze" begin="0.9s" />
                <animate attributeName="stroke-dashoffset" values="0;-20" dur="1s" repeatCount="indefinite" begin="1s" />
            </line>
        </g>

        <!-- Output connections -->
        <g stroke="#00BCD4" stroke-width="3" opacity="0.7">
            <!-- AI to Trajectory optimization -->
            <line x1="530" y1="250" x2="630" y2="150">
                <animate attributeName="stroke-dasharray" values="0,0;5,5" dur="0.1s" fill="freeze" begin="1.1s" />
                <animate attributeName="stroke-dashoffset" values="0;-20" dur="1s" repeatCount="indefinite" begin="1.2s" />
            </line>

            <!-- AI to Braking control -->
            <line x1="530" y1="250" x2="630" y2="250">
                <animate attributeName="stroke-dasharray" values="0,0;5,5" dur="0.1s" fill="freeze" begin="1.3s" />
                <animate attributeName="stroke-dashoffset" values="0;-20" dur="1s" repeatCount="indefinite" begin="1.4s" />
            </line>

            <!-- AI to Energy management -->
            <line x1="530" y1="250" x2="630" y2="350">
                <animate attributeName="stroke-dasharray" values="0,0;5,5" dur="0.1s" fill="freeze" begin="1.5s" />
                <animate attributeName="stroke-dashoffset" values="0;-20" dur="1s" repeatCount="indefinite" begin="1.6s" />
            </line>
        </g>

        <!-- Processing module connections -->
        <g stroke="#E91E63" stroke-width="2" opacity="0.7">
            <!-- Core to Machine learning -->
            <line x1="450" y1="170" x2="450" y2="250">
                <animate attributeName="stroke-dasharray" values="0,0;5,5" dur="0.1s" fill="freeze" begin="1.7s" />
                <animate attributeName="stroke-dashoffset" values="0;-20" dur="1s" repeatCount="indefinite" begin="1.8s" />
            </line>

            <!-- Core to Predictive analytics -->
            <line x1="450" y1="250" x2="450" y2="330">
                <animate attributeName="stroke-dasharray" values="0,0;5,5" dur="0.1s" fill="freeze" begin="1.9s" />
                <animate attributeName="stroke-dashoffset" values="0;-20" dur="1s" repeatCount="indefinite" begin="2s" />
            </line>

            <!-- Core to Real-time optimization -->
            <line x1="370" y1="250" x2="450" y2="250">
                <animate attributeName="stroke-dasharray" values="0,0;5,5" dur="0.1s" fill="freeze" begin="2.1s" />
                <animate attributeName="stroke-dashoffset" values="0;-20" dur="1s" repeatCount="indefinite" begin="2.2s" />
            </line>

            <!-- Core to Safety monitoring -->
            <line x1="450" y1="250" x2="520" y2="250">
                <animate attributeName="stroke-dasharray" values="0,0;5,5" dur="0.1s" fill="freeze" begin="2.3s" />
                <animate attributeName="stroke-dashoffset" values="0;-20" dur="1s" repeatCount="indefinite" begin="2.4s" />
            </line>
        </g>
    </g>

    <!-- Neural network visualization -->
    <g transform="translate(450, 450)">
        <!-- Neural network visualization -->
        <g opacity="0">
            <animate attributeName="opacity" values="0;1" dur="1s" fill="freeze" begin="2.5s" />

            <!-- Nodes -->
            <use href="#neuralNode" x="-200" y="-20" width="30" height="30" />
            <use href="#neuralNode" x="-200" y="0" width="30" height="30" />
            <use href="#neuralNode" x="-200" y="20" width="30" height="30" />

            <use href="#neuralNode" x="-100" y="-30" width="30" height="30" />
            <use href="#neuralNode" x="-100" y="-10" width="30" height="30" />
            <use href="#neuralNode" x="-100" y="10" width="30" height="30" />
            <use href="#neuralNode" x="-100" y="30" width="30" height="30" />

            <use href="#neuralNode" x="0" y="-30" width="30" height="30" />
            <use href="#neuralNode" x="0" y="-10" width="30" height="30" />
            <use href="#neuralNode" x="0" y="10" width="30" height="30" />
            <use href="#neuralNode" x="0" y="30" width="30" height="30" />

            <use href="#neuralNode" x="100" y="-15" width="30" height="30" />
            <use href="#neuralNode" x="100" y="15" width="30" height="30" />

            <use href="#neuralNode" x="200" y="0" width="30" height="30" />

            <!-- Connections -->
            <g stroke="#FFFFFF" stroke-width="1" opacity="0.5">
                <!-- Layer 1 to 2 -->
                <line x1="-185" y1="-20" x2="-85" y2="-30" />
                <line x1="-185" y1="-20" x2="-85" y2="-10" />
                <line x1="-185" y1="-20" x2="-85" y2="10" />
                <line x1="-185" y1="-20" x2="-85" y2="30" />

                <line x1="-185" y1="0" x2="-85" y2="-30" />
                <line x1="-185" y1="0" x2="-85" y2="-10" />
                <line x1="-185" y1="0" x2="-85" y2="10" />
                <line x1="-185" y1="0" x2="-85" y2="30" />

                <line x1="-185" y1="20" x2="-85" y2="-30" />
                <line x1="-185" y1="20" x2="-85" y2="-10" />
                <line x1="-185" y1="20" x2="-85" y2="10" />
                <line x1="-185" y1="20" x2="-85" y2="30" />

                <!-- Layer 2 to 3 -->
                <line x1="-85" y1="-30" x2="15" y2="-30" />
                <line x1="-85" y1="-30" x2="15" y2="-10" />
                <line x1="-85" y1="-30" x2="15" y2="10" />
                <line x1="-85" y1="-30" x2="15" y2="30" />

                <line x1="-85" y1="-10" x2="15" y2="-30" />
                <line x1="-85" y1="-10" x2="15" y2="-10" />
                <line x1="-85" y1="-10" x2="15" y2="10" />
                <line x1="-85" y1="-10" x2="15" y2="30" />

                <line x1="-85" y1="10" x2="15" y2="-30" />
                <line x1="-85" y1="10" x2="15" y2="-10" />
                <line x1="-85" y1="10" x2="15" y2="10" />
                <line x1="-85" y1="10" x2="15" y2="30" />

                <line x1="-85" y1="30" x2="15" y2="-30" />
                <line x1="-85" y1="30" x2="15" y2="-10" />
                <line x1="-85" y1="30" x2="15" y2="10" />
                <line x1="-85" y1="30" x2="15" y2="30" />

                <!-- Layer 3 to 4 -->
                <line x1="15" y1="-30" x2="115" y2="-15" />
                <line x1="15" y1="-30" x2="115" y2="15" />

                <line x1="15" y1="-10" x2="115" y2="-15" />
                <line x1="15" y1="-10" x2="115" y2="15" />

                <line x1="15" y1="10" x2="115" y2="-15" />
                <line x1="15" y1="10" x2="115" y2="15" />

                <line x1="15" y1="30" x2="115" y2="-15" />
                <line x1="15" y1="30" x2="115" y2="15" />

                <!-- Layer 4 to 5 -->
                <line x1="115" y1="-15" x2="215" y2="0" />
                <line x1="115" y1="15" x2="215" y2="0" />

                <!-- Animated data pulses -->
                <circle cx="-150" cy="-5" r="3" fill="#FFEB3B">
                    <animate attributeName="cx" values="-185;-85" dur="1.5s" repeatCount="indefinite" begin="2.8s" />
                    <animate attributeName="cy" values="-20;-10" dur="1.5s" repeatCount="indefinite" begin="2.8s" />
                </circle>

                <circle cx="-50" cy="0" r="3" fill="#FFEB3B">
                    <animate attributeName="cx" values="-85;15" dur="1.5s" repeatCount="indefinite" begin="3.1s" />
                    <animate attributeName="cy" values="-10;10" dur="1.5s" repeatCount="indefinite" begin="3.1s" />
                </circle>

                <circle cx="50" cy="0" r="3" fill="#FFEB3B">
                    <animate attributeName="cx" values="15;115" dur="1.5s" repeatCount="indefinite" begin="3.4s" />
                    <animate attributeName="cy" values="10;15" dur="1.5s" repeatCount="indefinite" begin="3.4s" />
                </circle>

                <circle cx="150" cy="5" r="3" fill="#FFEB3B">
                    <animate attributeName="cx" values="115;215" dur="1.5s" repeatCount="indefinite" begin="3.7s" />
                    <animate attributeName="cy" values="15;0" dur="1.5s" repeatCount="indefinite" begin="3.7s" />
                </circle>
            </g>

            <text x="0" y="-50" text-anchor="middle" font-family="Arial" font-size="12" fill="white">NEURAL NETWORK DECISION MODEL</text>
        </g>
    </g>

    <!-- System statistics -->
    <g transform="translate(50, 80)" font-family="Arial" font-size="12" fill="white" opacity="0">
        <animate attributeName="opacity" values="0;1" dur="1s" fill="freeze" begin="3s" />
        <rect width="200" height="140" rx="10" ry="10" fill="#FFFFFF" opacity="0.1" />
        <text x="10" y="30" font-weight="bold">SYSTEM SPECIFICATIONS:</text>
        <text x="10" y="60">• Response Time: &lt;10ms</text>
        <text x="10" y="80">• Prediction Accuracy: 99.97%</text>
        <text x="10" y="100">• Processing Cores: 128</text>
        <text x="10" y="120">• Update Frequency: 100Hz</text>
        <text x="10" y="140">• Safety Redundancy: 3x</text>
    </g>

    <!-- Legend -->
    <g transform="translate(650, 430)" font-family="Arial" font-size="12" fill="white" opacity="0">
        <animate attributeName="opacity" values="0;1" dur="1s" fill="freeze" begin="3s" />
        <rect width="200" height="120" rx="10" ry="10" fill="#FFFFFF" opacity="0.1" />
        <text x="10" y="30" font-weight="bold">LEGEND:</text>

        <rect x="10" y="45" width="15" height="15" fill="url(#dataGradient)" />
        <text x="35" y="58">Input Modules</text>

        <rect x="10" y="70" width="15" height="15" fill="url(#processingGradient)" />
        <text x="35" y="83">Processing Modules</text>

        <rect x="10" y="95" width="15" height="15" fill="url(#outputGradient)" />
        <text x="35" y="108">Output Modules</text>
    </g>
</svg>