<?xml version="1.0" encoding="UTF-8"?>
<svg viewBox="0 0 900 500" xmlns="http://www.w3.org/2000/svg">
    <defs>
        <!-- Gradients -->
        <linearGradient id="skyGradient" x1="0%" y1="0%" x2="0%" y2="100%">
            <stop offset="0%" stop-color="#1E88E5" />
            <stop offset="100%" stop-color="#90CAF9" />
        </linearGradient>
        <linearGradient id="runwayGradient" x1="0%" y1="0%" x2="100%" y2="0%">
            <stop offset="0%" stop-color="#424242" />
            <stop offset="50%" stop-color="#757575" />
            <stop offset="100%" stop-color="#424242" />
        </linearGradient>
        <linearGradient id="groundGradient" x1="0%" y1="0%" x2="0%" y2="100%">
            <stop offset="0%" stop-color="#8D6E63" />
            <stop offset="100%" stop-color="#6D4C41" />
        </linearGradient>
        <linearGradient id="metalGradient" x1="0%" y1="0%" x2="0%" y2="100%">
            <stop offset="0%" stop-color="#E0E0E0" />
            <stop offset="50%" stop-color="#BDBDBD" />
            <stop offset="100%" stop-color="#9E9E9E" />
        </linearGradient>
        <linearGradient id="energyGradient" x1="0%" y1="0%" x2="100%" y2="0%">
            <stop offset="0%" stop-color="#76FF03" />
            <stop offset="100%" stop-color="#64DD17" />
        </linearGradient>

        <!-- Filters -->
        <filter id="glow" x="-20%" y="-20%" width="140%" height="140%">
            <feGaussianBlur stdDeviation="5" result="blur" />
            <feComposite in="SourceGraphic" in2="blur" operator="over" />
        </filter>
        <filter id="dropShadow" x="-10%" y="-10%" width="120%" height="120%">
            <feDropShadow dx="2" dy="2" stdDeviation="2" flood-color="#000" flood-opacity="0.3" />
        </filter>

        <!-- Patterns -->
        <pattern id="gridPattern" width="20" height="20" patternUnits="userSpaceOnUse">
            <rect width="20" height="20" fill="none" stroke="#FFFFFF" stroke-width="0.5" opacity="0.3" />
        </pattern>

        <!-- Symbols -->
        <symbol id="airplane" viewBox="0 0 200 80">
            <path d="M 190,40 L 170,20 L 170,30 L 30,30 L 30,10 L 10,10 L 20,40 L 10,70 L 30,70 L 30,50 L 170,50 L 170,60 Z" fill="url(#metalGradient)" stroke="#333" stroke-width="1" />
            <path d="M 120,32 L 120,48 L 80,55 L 80,25 Z" fill="#333" />
            <rect x="140" y="25" width="20" height="30" rx="10" ry="10" fill="#333" />
        </symbol>

        <symbol id="energyFlow" viewBox="0 0 100 50">
            <path d="M 10,25 L 90,25" stroke="#76FF03" stroke-width="10" stroke-linecap="round" />
            <circle cx="40" cy="25" r="8" fill="#FFEB3B">
                <animate attributeName="cx" values="10;90;10" dur="3s" repeatCount="indefinite" />
            </circle>
        </symbol>

        <symbol id="landingGear" viewBox="0 0 50 80">
            <rect x="20" y="0" width="10" height="50" fill="#616161" stroke="#333" />
            <circle cx="25" cy="60" r="15" fill="#9E9E9E" stroke="#333" stroke-width="2" />
            <circle cx="25" cy="60" r="5" fill="#616161" />
            <rect x="10" y="45" width="30" height="10" rx="5" ry="5" fill="#616161" />
        </symbol>

        <symbol id="regenerativeBrakeUnit" viewBox="0 0 100 100">
            <rect x="10" y="10" width="80" height="80" rx="5" ry="5" fill="#0D47A1" stroke="#333" stroke-width="2" />
            <circle cx="50" cy="50" r="30" fill="none" stroke="#64B5F6" stroke-width="3" />
            <circle cx="50" cy="50" r="20" fill="#1976D2" />
            <path d="M 50,30 L 45,50 L 65,50 Z" fill="#FFEB3B">
                <animateTransform attributeName="transform" attributeType="XML" type="rotate" from="0 50 50" to="360 50 50" dur="5s" repeatCount="indefinite" />
            </path>
        </symbol>

        <!-- Animation paths -->
        <path id="approachPath" d="M 800,100 Q 650,150 500,250 T 200,350" fill="none" />
    </defs>

    <!-- Background -->
    <rect width="900" height="500" fill="url(#skyGradient)" />
    <rect x="0" y="350" width="900" height="150" fill="url(#groundGradient)" />

    <!-- Title -->
    <g font-family="Arial" font-weight="bold">
        <rect x="200" y="20" width="500" height="50" rx="10" ry="10" fill="#0066cc" opacity="0.8" />
        <text x="450" y="55" text-anchor="middle" font-size="22" fill="white">AI-GUIDED LANDING AND REGENERATIVE BRAKING</text>
    </g>

    <!-- Runway -->
    <g>
        <rect x="50" y="350" width="800" height="50" fill="url(#runwayGradient)" />
        <rect x="50" y="370" width="800" height="10" fill="#FFFFFF" opacity="0.5" />

        <!-- Runway markings -->
        <g fill="white">
            <rect x="100" y="375" width="50" height="5" />
            <rect x="200" y="375" width="50" height="5" />
            <rect x="300" y="375" width="50" height="5" />
            <rect x="400" y="375" width="50" height="5" />
            <rect x="500" y="375" width="50" height="5" />
            <rect x="600" y="375" width="50" height="5" />
            <rect x="700" y="375" width="50" height="5" />
        </g>
    </g>

    <!-- Runway-embedded regenerative system -->
    <g transform="translate(300, 350)">
        <rect x="-200" y="0" width="600" height="20" fill="#0D47A1" opacity="0.5" />

        <!-- Energy capture elements -->
        <g>
            <rect x="-180" y="5" width="30" height="10" rx="5" ry="5" fill="#1976D2" />
            <rect x="-130" y="5" width="30" height="10" rx="5" ry="5" fill="#1976D2" />
            <rect x="-80" y="5" width="30" height="10" rx="5" ry="5" fill="#1976D2" />
            <rect x="-30" y="5" width="30" height="10" rx="5" ry="5" fill="#1976D2" />
            <rect x="20" y="5" width="30" height="10" rx="5" ry="5" fill="#1976D2" />
            <rect x="70" y="5" width="30" height="10" rx="5" ry="5" fill="#1976D2" />
            <rect x="120" y="5" width="30" height="10" rx="5" ry="5" fill="#1976D2" />
            <rect x="170" y="5" width="30" height="10" rx="5" ry="5" fill="#1976D2" />
            <rect x="220" y="5" width="30" height="10" rx="5" ry="5" fill="#1976D2" />
            <rect x="270" y="5" width="30" height="10" rx="5" ry="5" fill="#1976D2" />
            <rect x="320" y="5" width="30" height="10" rx="5" ry="5" fill="#1976D2" />
        </g>

        <!-- Capture zone indicator -->
        <rect x="-50" y="-2" width="300" height="24" stroke="#FFC107" stroke-width="2" stroke-dasharray="10,10" fill="none">
            <animate attributeName="stroke-dashoffset" values="0;-40" dur="3s" repeatCount="indefinite" />
        </rect>
        <text x="100" y="-10" text-anchor="middle" font-family="Arial" font-size="14" fill="white" stroke="#000" stroke-width="0.5">PRIMARY CAPTURE ZONE</text>
    </g>

    <!-- Grid overlay for visual tech effect -->
    <rect x="50" y="350" width="800" height="50" fill="url(#gridPattern)" />

    <!-- Energy storage & distribution unit -->
    <g transform="translate(100, 420)">
        <rect width="100" height="60" rx="5" ry="5" fill="#0D47A1" stroke="#333" />
        <rect x="10" y="10" width="80" height="40" rx="2" ry="2" fill="#1565C0" />
        <text x="50" y="35" text-anchor="middle" font-family="Arial" font-size="12" fill="white">ENERGY</text>
        <text x="50" y="50" text-anchor="middle" font-family="Arial" font-size="12" fill="white">STORAGE</text>

        <!-- Energy level indicator -->
        <rect x="10" y="10" width="10" height="40" fill="#FFFFFF" opacity="0.2" />
        <rect x="10" y="10" width="10" height="40" fill="#64DD17" opacity="0.7">
            <animate attributeName="height" values="0;10;20;30;40;30;20;10" dur="5s" repeatCount="indefinite" />
        </rect>
    </g>

    <!-- Energy flow lines to storage -->
    <g stroke="#64DD17" stroke-width="3" stroke-linecap="round" stroke-dasharray="5,5">
        <line x1="300" y1="390" x2="200" y2="440">
            <animate attributeName="stroke-dashoffset" values="0;-20" dur="1s" repeatCount="indefinite" />
        </line>
        <line x1="500" y1="390" x2="200" y2="450">
            <animate attributeName="stroke-dashoffset" values="0;-20" dur="1s" repeatCount="indefinite" />
        </line>
    </g>

    <!-- AI Control center -->
    <g transform="translate(700, 420)">
        <rect width="100" height="60" rx="5" ry="5" fill="#311B92" stroke="#333" />
        <rect x="10" y="10" width="80" height="40" rx="2" ry="2" fill="#512DA8" />
        <text x="50" y="35" text-anchor="middle" font-family="Arial" font-size="12" fill="white">AI</text>
        <text x="50" y="50" text-anchor="middle" font-family="Arial" font-size="12" fill="white">CONTROL</text>

        <!-- Processing indicator -->
        <circle cx="50" cy="30" r="10" fill="none" stroke="#B39DDB" stroke-width="2">
            <animate attributeName="r" values="5;10;5" dur="2s" repeatCount="indefinite" />
            <animate attributeName="stroke-opacity" values="1;0.5;1" dur="2s" repeatCount="indefinite" />
        </circle>
    </g>

    <!-- AI control signals -->
    <g stroke="#B39DDB" stroke-width="2" stroke-linecap="round" stroke-dasharray="5,5">
        <line x1="700" y1="440" x2="550" y2="380">
            <animate attributeName="stroke-dashoffset" values="0;-20" dur="1.5s" repeatCount="indefinite" />
        </line>
        <line x1="700" y1="450" x2="450" y2="380">
            <animate attributeName="stroke-dashoffset" values="0;-20" dur="1.5s" repeatCount="indefinite" />
        </line>
        <line x1="700" y1="460" x2="350" y2="380">
            <animate attributeName="stroke-dashoffset" values="0;-20" dur="1.5s" repeatCount="indefinite" />
        </line>
    </g>

    <!-- Approaching aircraft -->
    <g>
        <use href="#airplane" width="200" height="80" opacity="0.9">
            <animateMotion path="M 800,100 Q 650,150 500,250 T 200,350" dur="7s" fill="freeze" />
        </use>
    </g>

    <!-- Capture mechanism visualization -->
    <g transform="translate(200, 325)">
        <!-- Landing gear interface -->
        <use href="#landingGear" width="50" height="80" x="50" y="-55" opacity="0">
            <animate attributeName="opacity" values="0;0;1" dur="7s" fill="freeze" />
        </use>

        <!-- Regenerative brake unit -->
        <g opacity="0">
            <animate attributeName="opacity" values="0;0;0;1" dur="7s" fill="freeze" />
            <use href="#regenerativeBrakeUnit" width="60" height="60" x="45" y="-5" />
            <rect x="0" y="30" width="150" height="20" fill="#0D47A1" opacity="0.7" rx="10" ry="10" />

            <!-- Energy flow animation -->
            <g filter="url(#glow)" opacity="0">
                <animate attributeName="opacity" values="0;0;0;0;1" dur="7s" fill="freeze" />
                <use href="#energyFlow" width="120" height="60" x="15" y="10" />
            </g>
        </g>
    </g>

    <!-- Detail callouts -->
    <g>
        <!-- Regenerative braking system -->
        <g transform="translate(100, 250)">
            <circle cx="50" cy="50" r="40" fill="white" stroke="#0066cc" stroke-width="2" filter="url(#dropShadow)" />
            <use href="#regenerativeBrakeUnit" width="50" height="50" x="25" y="25" />
            <text x="50" y="100" text-anchor="middle" font-family="Arial" font-size="12" font-weight="bold">Regenerative Braking Unit</text>
        </g>

        <!-- Energy flow -->
        <g transform="translate(400, 230)">
            <circle cx="50" cy="50" r="40" fill="white" stroke="#0066cc" stroke-width="2" filter="url(#dropShadow)" />
            <use href="#energyFlow" width="80" height="40" x="10" y="30" />
            <text x="50" y="100" text-anchor="middle" font-family="Arial" font-size="12" font-weight="bold">Energy Capture Flow</text>
        </g>

        <!-- AI guidance -->
        <g transform="translate(700, 250)">
            <circle cx="50" cy="50" r="40" fill="white" stroke="#0066cc" stroke-width="2" filter="url(#dropShadow)" />
            <g transform="translate(30, 30)">
                <rect width="40" height="40" rx="5" ry="5" fill="#311B92" />
                <circle cx="20" cy="20" r="15" fill="none" stroke="#B39DDB" stroke-width="2" />
                <path d="M 20,10 L 15,20 L 25,20 Z" fill="#FFC107">
                    <animateTransform attributeName="transform" attributeType="XML" type="rotate" from="0 20 20" to="360 20 20" dur="4s" repeatCount="indefinite" />
                </path>
            </g>
            <text x="50" y="100" text-anchor="middle" font-family="Arial" font-size="12" font-weight="bold">AI Landing Guidance</text>
        </g>
    </g>

    <!-- Energy flow visualization -->
    <g transform="translate(250, 150)">
        <!-- Landing trajectory path -->
        <path d="M 300,0 Q 200,50 100,100 T -50,200" stroke="#FFFFFF" stroke-width="1" stroke-dasharray="5,5" fill="none" />

        <!-- Energy capture indicator -->
        <g transform="translate(100, 100)">
            <circle cx="0" cy="0" r="20" fill="none" stroke="#64DD17" stroke-width="2">
                <animate attributeName="r" values="20;30;20" dur="2s" repeatCount="indefinite" />
            </circle>
            <text x="0" y="-30" text-anchor="middle" font-family="Arial" font-size="12" fill="white">ENERGY CAPTURE POINT</text>
        </g>
    </g>

    <!-- System specifications -->
    <g transform="translate(50, 50)" font-family="Arial" font-size="12">
        <rect width="180" height="100" fill="white" opacity="0.8" rx="5" ry="5" filter="url(#dropShadow)" />
        <text x="10" y="20" font-weight="bold">System Specifications:</text>
        <text x="10" y="40">- Energy Recovery: 70%</text>
        <text x="10" y="60">- Braking Distance: 900m</text>
        <text x="10" y="80">- AI Response: 10ms</text>
        <text x="10" y="100">- Capacity: 200+ kWh</text>
    </g>

    <!-- Dynamic annotations -->
    <g font-family="Arial" font-size="12">
        <!-- Runway system explanation -->
        <g transform="translate(450, 330)">
            <rect x="-100" y="-20" width="200" height="30" rx="15" ry="15" fill="white" stroke="#0066cc" filter="url(#dropShadow)" />
            <text x="0" y="0" text-anchor="middle">Intelligent Capture Rail System</text>
        </g>

        <!-- Energy storage explanation -->
        <g transform="translate(100, 400)">
            <rect x="0" y="-20" width="150" height="30" rx="15" ry="15" fill="white" stroke="#0066cc" filter="url(#dropShadow)" />
            <text x="75" y="0" text-anchor="middle">High-Capacity Storage</text>
        </g>

        <!-- AI system explanation -->
        <g transform="translate(700, 400)">
            <rect x="0" y="-20" width="150" height="30" rx="15" ry="15" fill="white" stroke="#0066cc" filter="url(#dropShadow)" />
            <text x="75" y="0" text-anchor="middle">Adaptive AI Controller</text>
        </g>
    </g>
</svg>