<?xml version="1.0" encoding="UTF-8"?>
<svg viewBox="0 0 900 500" xmlns="http://www.w3.org/2000/svg">
    <defs>
        <!-- Gradients -->
        <linearGradient id="skyGradient" x1="0%" y1="0%" x2="0%" y2="100%">
            <stop offset="0%" stop-color="#87CEEB" />
            <stop offset="100%" stop-color="#E0F7FA" />
        </linearGradient>
        <linearGradient id="runwayGradient" x1="0%" y1="0%" x2="100%" y2="0%">
            <stop offset="0%" stop-color="#555555" />
            <stop offset="50%" stop-color="#777777" />
            <stop offset="100%" stop-color="#555555" />
        </linearGradient>
        <linearGradient id="magliftGradient" x1="0%" y1="0%" x2="0%" y2="100%">
            <stop offset="0%" stop-color="#0066cc" />
            <stop offset="100%" stop-color="#0099ff" />
        </linearGradient>
        <linearGradient id="energyGlowGradient" x1="0%" y1="0%" x2="0%" y2="100%">
            <stop offset="0%" stop-color="rgba(0, 255, 0, 0.7)" />
            <stop offset="100%" stop-color="rgba(0, 255, 0, 0)" />
        </linearGradient>

        <!-- Filters -->
        <filter id="glow" x="-20%" y="-20%" width="140%" height="140%">
            <feGaussianBlur stdDeviation="5" result="blur" />
            <feComposite in="SourceGraphic" in2="blur" operator="over" />
        </filter>

        <!-- Animation paths -->
        <path id="takeoffPath" d="M 150,350 Q 300,330 450,250 T 750,150" fill="none" />
        <path id="landingPath" d="M 750,150 Q 600,200 450,250 T 150,300" fill="none" />

        <!-- Airplane shape -->
        <symbol id="airplane" viewBox="0 0 100 100">
            <path d="M 95,50 L 80,40 L 80,45 L 20,45 L 15,25 L 5,25 L 15,50 L 5,75 L 15,75 L 20,55 L 80,55 L 80,60 Z" fill="white" stroke="#333" stroke-width="1" />
            <path d="M 50,47 L 50,53 L 30,58 L 30,42 Z" fill="#333" />
        </symbol>

        <!-- Energy indicator -->
        <symbol id="energyIndicator" viewBox="0 0 100 100">
            <path d="M 50,10 L 30,50 L 45,50 L 40,90 L 75,40 L 55,40 L 65,10 Z" fill="yellow" stroke="#FFA500" stroke-width="2" />
        </symbol>
    </defs>

    <!-- Background -->
    <rect width="900" height="500" fill="url(#skyGradient)" />
    <rect x="50" y="350" width="800" height="100" fill="#8D6E63" />

    <!-- Runway -->
    <rect x="100" y="300" width="700" height="50" fill="url(#runwayGradient)" />
    <rect x="100" y="320" width="700" height="10" fill="#FFFFFF" opacity="0.5" />

    <!-- Grid lines in runway (maglev tracks) -->
    <g stroke="#FFC107" stroke-width="2" stroke-dasharray="10,10">
        <line x1="100" y1="310" x2="800" y2="310" />
        <line x1="100" y1="340" x2="800" y2="340" />
    </g>

    <!-- Energy storage facility -->
    <g transform="translate(50, 400)">
        <rect width="100" height="60" fill="#424242" rx="5" ry="5" />
        <rect x="10" y="10" width="80" height="40" fill="#212121" rx="2" ry="2" />
        <text x="50" y="80" text-anchor="middle" fill="white" font-family="Arial" font-size="12">Energy Storage</text>

        <!-- Energy level indicator -->
        <rect x="20" y="15" width="60" height="30" fill="#1B5E20" opacity="0.3" />
        <rect x="20" y="15" width="45" height="30" fill="#2E7D32">
            <animate attributeName="width" values="0;15;30;45;60;45;30;15" dur="10s" repeatCount="indefinite" />
        </rect>
    </g>

    <!-- Control center -->
    <g transform="translate(750, 400)">
        <rect width="100" height="60" fill="#0D47A1" rx="5" ry="5" />
        <rect x="10" y="10" width="80" height="40" fill="#1565C0" rx="2" ry="2" />
        <circle cx="50" cy="30" r="15" fill="#0D47A1" stroke="#29B6F6" stroke-width="2" />
        <text x="50" y="80" text-anchor="middle" fill="white" font-family="Arial" font-size="12">AI Control Center</text>

        <!-- Pulsing radar animation -->
        <circle cx="50" cy="30" r="5" fill="none" stroke="#29B6F6" stroke-width="1">
            <animate attributeName="r" values="5;15;5" dur="2s" repeatCount="indefinite" />
            <animate attributeName="opacity" values="1;0;1" dur="2s" repeatCount="indefinite" />
        </circle>
    </g>

    <!-- Energy transfer lines -->
    <g stroke="#2E7D32" stroke-width="3" stroke-dasharray="5,5">
        <line x1="150" y1="430" x2="300" y2="350">
            <animate attributeName="stroke-dashoffset" values="0;-20" dur="1s" repeatCount="indefinite" />
        </line>
        <line x1="700" y1="350" x2="750" y2="430">
            <animate attributeName="stroke-dashoffset" values="0;-20" dur="1s" repeatCount="indefinite" />
        </line>
    </g>

    <!-- AI connection lines -->
    <g stroke="#29B6F6" stroke-width="2" stroke-dasharray="5,5">
        <line x1="750" y1="420" x2="450" y2="350">
            <animate attributeName="stroke-dashoffset" values="0;-20" dur="1.5s" repeatCount="indefinite" />
        </line>
    </g>

    <!-- Runway section labels -->
    <g font-family="Arial" font-size="14" font-weight="bold" fill="#333">
        <text x="200" y="280" text-anchor="middle">TAKEOFF ZONE</text>
        <text x="700" y="280" text-anchor="middle">LANDING ZONE</text>
    </g>

    <!-- Landing system visualization -->
    <g transform="translate(650, 325)">
        <rect width="200" height="10" fill="#0066cc" opacity="0.7" rx="5" ry="5" />
        <g filter="url(#glow)">
            <circle cx="100" cy="5" r="15" fill="url(#energyGlowGradient)" opacity="0.7">
                <animate attributeName="r" values="10;15;10" dur="2s" repeatCount="indefinite" />
            </circle>
        </g>
    </g>

    <!-- Takeoff system visualization -->
    <g transform="translate(150, 325)">
        <rect width="200" height="10" fill="#0066cc" opacity="0.7" rx="5" ry="5" />

        <!-- Moving energy pulses -->
        <circle cx="20" cy="5" r="8" fill="#FFC107">
            <animate attributeName="cx" values="20;180" dur="2s" repeatCount="indefinite" />
            <animate attributeName="opacity" values="1;0.5;1" dur="2s" repeatCount="indefinite" />
        </circle>
    </g>

    <!-- Moving planes -->
    <g>
        <!-- Takeoff plane -->
        <use href="#airplane" x="0" y="0" width="80" height="80">
            <animateMotion dur="6s" repeatCount="indefinite" rotate="auto">
                <mpath href="#takeoffPath" />
            </animateMotion>
        </use>

        <!-- Landing plane -->
        <use href="#airplane" x="0" y="0" width="80" height="80" transform="scale(-1,1)">
            <animateMotion dur="6s" repeatCount="indefinite" rotate="auto" begin="3s">
                <mpath href="#landingPath" />
            </animateMotion>
        </use>
    </g>

    <!-- Energy indicators -->
    <g>
        <!-- Takeoff energy -->
        <use href="#energyIndicator" x="200" y="250" width="30" height="30" opacity="0.9">
            <animate attributeName="opacity" values="0.9;0.5;0.9" dur="2s" repeatCount="indefinite" />
        </use>

        <!-- Landing energy recovery -->
        <g transform="translate(600, 240)">
            <use href="#energyIndicator" width="30" height="30" opacity="0.9">
                <animate attributeName="opacity" values="0.9;0.5;0.9" dur="2s" repeatCount="indefinite" begin="1s" />
                <animateTransform attributeName="transform" type="rotate" from="0" to="-180" dur="3s" repeatCount="indefinite" />
            </use>
        </g>
    </g>

    <!-- Title -->
    <g font-family="Arial" font-weight="bold">
        <rect x="275" y="20" width="350" height="50" rx="10" ry="10" fill="#0066cc" opacity="0.8" />
        <text x="450" y="55" text-anchor="middle" font-size="22" fill="white">AI-ASSISTED MAGLEV AIRCRAFT SYSTEM</text>
    </g>

    <!-- Legend -->
    <g transform="translate(50, 50)" font-family="Arial" font-size="12">
        <rect width="160" height="130" fill="white" opacity="0.7" rx="5" ry="5" />

        <circle cx="15" cy="20" r="6" fill="#0066cc" />
        <text x="30" y="24">Maglev Track</text>

        <circle cx="15" cy="45" r="6" fill="#2E7D32" />
        <text x="30" y="49">Energy Transfer</text>

        <circle cx="15" cy="70" r="6" fill="#FFC107" />
        <text x="30" y="74">Propulsion Energy</text>

        <circle cx="15" cy="95" r="6" fill="#29B6F6" />
        <text x="30" y="99">AI Control</text>

        <use href="#energyIndicator" x="10" y="110" width="10" height="10" />
        <text x="30" y="124">Regenerative Braking</text>
    </g>
</svg>