<?xml version="1.0" encoding="utf-8"?>
<svg xmlns="http://www.w3.org/2000/svg" viewBox="116.611 -218.6353 1000.0055 500.0053" width="1000.01px" height="500.005px">
    <defs>
        <linearGradient id="bgGradient" x1="0%" y1="0%" x2="100%" y2="100%">
            <stop offset="0" stop-color="#f5f9ff"/>
            <stop offset="1" stop-color="#e6eeff"/>
        </linearGradient>
        <linearGradient id="botGradient" x1="0%" y1="0%" x2="0%" y2="100%">
            <stop offset="0" stop-color="#4a6fa5"/>
            <stop offset="1" stop-color="#166088"/>
        </linearGradient>
        <linearGradient id="cardGradient" x1="0%" y1="0%" x2="0%" y2="100%" spreadMethod="pad">
            <stop offset="0" stop-color="#ffffff"/>
            <stop offset="1" stop-color="#f5f9ff"/>
        </linearGradient>
        <linearGradient gradientUnits="userSpaceOnUse" x1="291.616" y1="-168.63" x2="291.616" y2="-138.63" id="gradient-1">
            <stop offset="0" style="stop-color: rgb(21.569% 59.216% 59.216%)"/>
            <stop offset="1" style="stop-color: rgb(0% 36.302% 36.652%)"/>
        </linearGradient>
        <linearGradient id="connectionGradient" x1="0%" y1="0%" x2="100%" y2="0%">
            <stop offset="0" stop-color="#4fc3f7" stop-opacity="0.7"/>
            <stop offset="1" stop-color="#4a6fa5" stop-opacity="0.7"/>
        </linearGradient>
        <linearGradient gradientUnits="userSpaceOnUse" x1="291.616" y1="81.365" x2="291.616" y2="111.365" id="gradient-0">
            <stop offset="0" style="stop-color: rgb(55.686% 29.02% 64.706%)"/>
            <stop offset="1" style="stop-color: rgb(37.744% 11.901% 46.88%)"/>
        </linearGradient>
        <radialGradient gradientUnits="userSpaceOnUse" cx="941.617" cy="-153.63" r="125" id="gradient-2">
            <stop offset="0" style="stop-color: rgb(58.431% 64.706% 29.02%)"/>
            <stop offset="1" style="stop-color: rgb(31.858% 38.571% 0.44278%)"/>
        </radialGradient>
        <linearGradient gradientUnits="userSpaceOnUse" x1="941.617" y1="81.365" x2="941.617" y2="111.365" id="gradient-4">
            <stop offset="0" style="stop-color: rgb(29.02% 43.529% 64.706%)"/>
            <stop offset="1" style="stop-color: rgb(7.6778% 26.4% 45.843%)"/>
        </linearGradient>
        <filter id="glow" x="-20%" y="-20%" width="140%" height="140%">
            <feGaussianBlur stdDeviation="5" result="blur"/>
            <feComposite in="SourceGraphic" in2="blur" operator="over"/>
        </filter>
    </defs>
    <rect width="1000" height="500" fill="url(#bgGradient)" x="116.611" y="-218.63" transform="matrix(0.9999999999999999, 0, 0, 0.9999999999999999, 0, 0)"/>
    <g stroke="#dee6f1" stroke-width="1" transform="matrix(0.9999999999999999, 0, 0, 0.9999999999999999, 116.61647970402953, -218.63531819932632)">
        <line x1="0" y1="250" x2="1000" y2="250"/>
        <line x1="500" y1="0" x2="500" y2="500"/>
    </g>
    <g transform="matrix(0.9999999999999999, 0, 0, 0.9999999999999999, 616.6165253015834, 31.364691248009933)">
        <circle cx="0" cy="0" r="60" fill="url(#botGradient)"/>
        <circle cx="0" cy="0" r="70" fill="none" stroke="#4fc3f7" stroke-width="3" stroke-dasharray="10 5"/>
        <circle cx="0" cy="0" r="80" fill="none" stroke="#4fc3f7" stroke-width="2" stroke-dasharray="5 8"/>
        <circle cx="-20" cy="-15" r="7" fill="white"/>
        <circle cx="20" cy="-15" r="7" fill="white"/>
        <path d="M-15,15 C-15,25 15,25 15,15" stroke="white" stroke-width="3" fill="none"/>
        <rect x="-50" y="35" width="100" height="30" rx="15" fill="white" stroke="#4a6fa5" stroke-width="2"/>
        <text x="0" y="55" font-family="Arial" font-size="14" fill="#4a6fa5" text-anchor="middle" font-weight="bold" style="white-space: pre;">SCRUMBOT</text>
    </g>
    <rect x="166.616" y="-168.63" width="250" height="150" rx="10" fill="url(#cardGradient)" stroke="#dee6f1" stroke-width="2" transform="matrix(0.9999999999999999, 0, 0, 0.9999999999999999, 0, 0)"/>
    <rect x="166.616" y="-168.63" width="250" height="30" rx="10" style="fill: url(&quot;#gradient-1&quot;);" transform="matrix(0.9999999999999999, 0, 0, 0.9999999999999999, 0, 0)"/>
    <text x="291.616" y="-148.63" font-family="Arial" font-size="14" fill="white" text-anchor="middle" font-weight="bold" style="white-space: pre; font-size: 14px;" transform="matrix(0.9999999999999999, 0, 0, 0.9999999999999999, 0, 0)">DEVELOPMENT TEAM</text>
    <circle cx="201.616" cy="-108.64" r="20" fill="#e1e8f0" stroke="#b0c4de" stroke-width="2" transform="matrix(0.9999999999999999, 0, 0, 0.9999999999999999, 0, 0)"/>
    <text x="201.616" y="-105.64" font-family="Arial" font-size="10" fill="#4a6fa5" text-anchor="middle" style="white-space: pre; font-size: 10px;" transform="matrix(0.9999999999999999, 0, 0, 0.9999999999999999, 0, 0)">DEV</text>
    <circle cx="261.616" cy="-108.64" r="20" fill="#e1e8f0" stroke="#b0c4de" stroke-width="2" transform="matrix(0.9999999999999999, 0, 0, 0.9999999999999999, 0, 0)"/>
    <text x="261.616" y="-105.64" font-family="Arial" font-size="10" fill="#4a6fa5" text-anchor="middle" style="white-space: pre; font-size: 10px;" transform="matrix(0.9999999999999999, 0, 0, 0.9999999999999999, 0, 0)">DEV</text>
    <circle cx="321.616" cy="-108.64" r="20" fill="#e1e8f0" stroke="#b0c4de" stroke-width="2" transform="matrix(0.9999999999999999, 0, 0, 0.9999999999999999, 0, 0)"/>
    <text x="321.616" y="-105.64" font-family="Arial" font-size="10" fill="#4a6fa5" text-anchor="middle" style="white-space: pre; font-size: 10px;" transform="matrix(0.9999999999999999, 0, 0, 0.9999999999999999, 0, 0)">DEV</text>
    <circle cx="381.616" cy="-108.64" r="20" fill="#e1e8f0" stroke="#b0c4de" stroke-width="2" transform="matrix(0.9999999999999999, 0, 0, 0.9999999999999999, 0, 0)"/>
    <text x="381.616" y="-105.64" font-family="Arial" font-size="10" fill="#4a6fa5" text-anchor="middle" style="white-space: pre; font-size: 10px;" transform="matrix(0.9999999999999999, 0, 0, 0.9999999999999999, 0, 0)">DEV</text>
    <circle cx="231.616" cy="-53.635" r="25" fill="#f9e9c3" stroke="#eac170" stroke-width="2" transform="matrix(0.9999999999999999, 0, 0, 0.9999999999999999, 0, 0)"/>
    <text x="231.616" y="-48.635" font-family="Arial" font-size="10" fill="#8b6914" text-anchor="middle" style="white-space: pre; font-size: 10px;" transform="matrix(0.9999999999999999, 0, 0, 0.9999999999999999, 0, 0)">SCRUM</text>
    <text x="231.616" y="-36.635" font-family="Arial" font-size="8" fill="#8b6914" text-anchor="middle" style="white-space: pre; font-size: 8px;" transform="matrix(0.9999999999999999, 0, 0, 0.9999999999999999, 0, 0)">MASTER</text>
    <circle cx="351.616" cy="-53.635" r="20" fill="url(#botGradient)" transform="matrix(0.9999999999999999, 0, 0, 0.9999999999999999, 0, 0)"/>
    <circle cx="343.616" cy="-60.635" r="5" fill="white" transform="matrix(0.9999999999999999, 0, 0, 0.9999999999999999, 0, 0)"/>
    <circle cx="359.616" cy="-60.635" r="5" fill="white" transform="matrix(0.9999999999999999, 0, 0, 0.9999999999999999, 0, 0)"/>
    <path d="M 346.616 -48.635 C 346.616 -43.635 356.616 -43.635 356.616 -48.635" stroke="white" stroke-width="2" fill="none" transform="matrix(0.9999999999999999, 0, 0, 0.9999999999999999, 0, 0)"/>
    <line x1="374.265" y1="-49.631" x2="553.559" y2="26.335" stroke="url(#connectionGradient)" stroke-width="3" stroke-dasharray="5 3" style="" transform="matrix(0.9999999999999999, 0, 0, 0.9999999999999999, 0, 0)"/>
    <rect x="166.616" y="81.365" width="250" height="150" rx="10" fill="url(#cardGradient)" stroke="#dee6f1" stroke-width="2" transform="matrix(0.9999999999999999, 0, 0, 0.9999999999999999, 0, 0)"/>
    <rect x="166.616" y="81.365" width="250" height="30" rx="10" style="fill: url(&quot;#gradient-0&quot;);" transform="matrix(0.9999999999999999, 0, 0, 0.9999999999999999, 0, 0)"/>
    <text x="291.616" y="101.365" font-family="Arial" font-size="14" fill="white" text-anchor="middle" font-weight="bold" style="white-space: pre; font-size: 14px;" transform="matrix(0.9999999999999999, 0, 0, 0.9999999999999999, 0, 0)">DESIGN TEAM</text>
    <circle cx="221.616" cy="141.365" r="20" fill="#e1e8f0" stroke="#b0c4de" stroke-width="2" transform="matrix(0.9999999999999999, 0, 0, 0.9999999999999999, 0, 0)"/>
    <text x="221.616" y="144.365" font-family="Arial" font-size="10" fill="#4a6fa5" text-anchor="middle" style="white-space: pre; font-size: 10px;" transform="matrix(0.9999999999999999, 0, 0, 0.9999999999999999, 0, 0)">UX</text>
    <circle cx="291.616" cy="141.365" r="20" fill="#e1e8f0" stroke="#b0c4de" stroke-width="2" transform="matrix(0.9999999999999999, 0, 0, 0.9999999999999999, 0, 0)"/>
    <text x="291.616" y="144.365" font-family="Arial" font-size="10" fill="#4a6fa5" text-anchor="middle" style="white-space: pre; font-size: 10px;" transform="matrix(0.9999999999999999, 0, 0, 0.9999999999999999, 0, 0)">UI</text>
    <circle cx="361.616" cy="141.365" r="20" fill="#e1e8f0" stroke="#b0c4de" stroke-width="2" transform="matrix(0.9999999999999999, 0, 0, 0.9999999999999999, 0, 0)"/>
    <text x="361.616" y="144.365" font-family="Arial" font-size="10" fill="#4a6fa5" text-anchor="middle" style="white-space: pre; font-size: 10px;" transform="matrix(0.9999999999999999, 0, 0, 0.9999999999999999, 0, 0)">UX</text>
    <circle cx="231.616" cy="196.365" r="25" fill="#f9e9c3" stroke="#eac170" stroke-width="2" transform="matrix(0.9999999999999999, 0, 0, 0.9999999999999999, 0, 0)"/>
    <text x="231.616" y="201.365" font-family="Arial" font-size="10" fill="#8b6914" text-anchor="middle" style="white-space: pre; font-size: 10px;" transform="matrix(0.9999999999999999, 0, 0, 0.9999999999999999, 0, 0)">SCRUM</text>
    <text x="231.616" y="213.365" font-family="Arial" font-size="8" fill="#8b6914" text-anchor="middle" style="white-space: pre; font-size: 8px;" transform="matrix(0.9999999999999999, 0, 0, 0.9999999999999999, 0, 0)">MASTER</text>
    <circle cx="375.64" cy="195.698" r="20" fill="url(#botGradient)" transform="matrix(0.9999999999999999, 0, 0, 0.9999999999999999, 0, 0)"/>
    <circle cx="367.64" cy="188.698" r="5" fill="white" transform="matrix(0.9999999999999999, 0, 0, 0.9999999999999999, 0, 0)"/>
    <circle cx="383.64" cy="188.698" r="5" fill="white" transform="matrix(0.9999999999999999, 0, 0, 0.9999999999999999, 0, 0)"/>
    <path d="M 370.64 200.698 C 370.64 205.698 380.64 205.698 380.64 200.698" stroke="white" stroke-width="2" fill="none" transform="matrix(0.9999999999999999, 0, 0, 0.9999999999999999, 0, 0)"/>
    <line x1="384.943" y1="177.033" x2="562.901" y2="63.706" stroke="url(#connectionGradient)" stroke-width="3" stroke-dasharray="5 3" style="" transform="matrix(0.9999999999999999, 0, 0, 0.9999999999999999, 0, 0)"/>
    <rect x="816.617" y="-168.63" width="250" height="150" rx="10" fill="url(#cardGradient)" stroke="#dee6f1" stroke-width="2" transform="matrix(0.9999999999999999, 0, 0, 0.9999999999999999, 0, 0)"/>
    <rect x="816.617" y="-168.63" width="250" height="30" rx="10" style="fill: url(&quot;#gradient-2&quot;);" transform="matrix(0.9999999999999999, 0, 0, 0.9999999999999999, 0, 0)"/>
    <text x="941.617" y="-148.63" font-family="Arial" font-size="14" fill="white" text-anchor="middle" font-weight="bold" style="white-space: pre; font-size: 14px;" transform="matrix(0.9999999999999999, 0, 0, 0.9999999999999999, 0, 0)">QA TEAM</text>
    <circle cx="871.617" cy="-108.64" r="20" fill="#e1e8f0" stroke="#b0c4de" stroke-width="2" transform="matrix(0.9999999999999999, 0, 0, 0.9999999999999999, 0, 0)"/>
    <text x="871.617" y="-105.64" font-family="Arial" font-size="10" fill="#4a6fa5" text-anchor="middle" style="white-space: pre; font-size: 10px;" transform="matrix(0.9999999999999999, 0, 0, 0.9999999999999999, 0, 0)">QA</text>
    <circle cx="941.617" cy="-108.64" r="20" fill="#e1e8f0" stroke="#b0c4de" stroke-width="2" transform="matrix(0.9999999999999999, 0, 0, 0.9999999999999999, 0, 0)"/>
    <text x="941.617" y="-105.64" font-family="Arial" font-size="10" fill="#4a6fa5" text-anchor="middle" style="white-space: pre; font-size: 10px;" transform="matrix(0.9999999999999999, 0, 0, 0.9999999999999999, 0, 0)">QA</text>
    <circle cx="1011.62" cy="-108.64" r="20" fill="#e1e8f0" stroke="#b0c4de" stroke-width="2" transform="matrix(0.9999999999999999, 0, 0, 0.9999999999999999, 0, 0)"/>
    <text x="1011.62" y="-105.64" font-family="Arial" font-size="10" fill="#4a6fa5" text-anchor="middle" style="white-space: pre; font-size: 10px;" transform="matrix(0.9999999999999999, 0, 0, 0.9999999999999999, 0, 0)">QA</text>
    <circle cx="1027.09" cy="-50.298" r="25" fill="#f9e9c3" stroke="#eac170" stroke-width="2" transform="matrix(0.9999999999999999, 0, 0, 0.9999999999999999, 0, 0)"/>
    <text x="1034.08" y="-51.298" font-family="Arial" font-size="10" fill="#8b6914" text-anchor="middle" style="white-space: pre; font-size: 10px;" transform="matrix(0.9999999999999999, 0, 0, 0.9999999999999999, 0, 0)">SCRUM</text>
    <text x="1034.08" y="-39.298" font-family="Arial" font-size="8" fill="#8b6914" text-anchor="middle" style="white-space: pre; font-size: 8px;" transform="matrix(0.9999999999999999, 0, 0, 0.9999999999999999, 0, 0)">MASTER</text>
    <circle cx="861.795" cy="-48.29" r="20" fill="url(#botGradient)" transform="matrix(0.9999999999999999, 0, 0, 0.9999999999999999, 0, 0)"/>
    <circle cx="853.792" cy="-55.29" r="5" fill="white" transform="matrix(0.9999999999999999, 0, 0, 0.9999999999999999, 0, 0)"/>
    <circle cx="869.795" cy="-55.29" r="5" fill="white" transform="matrix(0.9999999999999999, 0, 0, 0.9999999999999999, 0, 0)"/>
    <path d="M 856.792 -43.29 C 856.792 -38.29 866.795 -38.29 866.795 -43.29" stroke="white" stroke-width="2" fill="none" transform="matrix(0.9999999999999999, 0, 0, 0.9999999999999999, 0, 0)"/>
    <line x1="832.154" y1="-44.96" x2="673.549" y2="17.66" stroke="url(#connectionGradient)" stroke-width="3" stroke-dasharray="5 3" style="" transform="matrix(0.9999999999999999, 0, 0, 0.9999999999999999, 0, 0)"/>
    <rect x="816.617" y="81.365" width="250" height="150" rx="10" fill="url(#cardGradient)" stroke="#dee6f1" stroke-width="2" transform="matrix(0.9999999999999999, 0, 0, 0.9999999999999999, 0, 0)"/>
    <rect x="816.617" y="81.365" width="250" height="30" rx="10" style="fill: url(&quot;#gradient-4&quot;);" transform="matrix(0.9999999999999999, 0, 0, 0.9999999999999999, 0, 0)"/>
    <text x="941.617" y="101.365" font-family="Arial" font-size="14" fill="white" text-anchor="middle" font-weight="bold" style="white-space: pre; font-size: 14px;" transform="matrix(0.9999999999999999, 0, 0, 0.9999999999999999, 0, 0)">BACKEND TEAM</text>
    <circle cx="851.617" cy="141.365" r="20" fill="#e1e8f0" stroke="#b0c4de" stroke-width="2" transform="matrix(0.9999999999999999, 0, 0, 0.9999999999999999, 0, 0)"/>
    <text x="851.617" y="144.365" font-family="Arial" font-size="10" fill="#4a6fa5" text-anchor="middle" style="white-space: pre; font-size: 10px;" transform="matrix(0.9999999999999999, 0, 0, 0.9999999999999999, 0, 0)">DEV</text>
    <circle cx="911.617" cy="141.365" r="20" fill="#e1e8f0" stroke="#b0c4de" stroke-width="2" transform="matrix(0.9999999999999999, 0, 0, 0.9999999999999999, 0, 0)"/>
    <text x="911.617" y="144.365" font-family="Arial" font-size="10" fill="#4a6fa5" text-anchor="middle" style="white-space: pre; font-size: 10px;" transform="matrix(0.9999999999999999, 0, 0, 0.9999999999999999, 0, 0)">DEV</text>
    <circle cx="971.617" cy="141.365" r="20" fill="#e1e8f0" stroke="#b0c4de" stroke-width="2" transform="matrix(0.9999999999999999, 0, 0, 0.9999999999999999, 0, 0)"/>
    <text x="971.617" y="144.365" font-family="Arial" font-size="10" fill="#4a6fa5" text-anchor="middle" style="white-space: pre; font-size: 10px;" transform="matrix(0.9999999999999999, 0, 0, 0.9999999999999999, 0, 0)">DEV</text>
    <circle cx="1031.62" cy="141.365" r="20" fill="#e1e8f0" stroke="#b0c4de" stroke-width="2" transform="matrix(0.9999999999999999, 0, 0, 0.9999999999999999, 0, 0)"/>
    <text x="1031.62" y="144.365" font-family="Arial" font-size="10" fill="#4a6fa5" text-anchor="middle" style="white-space: pre; font-size: 10px;" transform="matrix(0.9999999999999999, 0, 0, 0.9999999999999999, 0, 0)">DEV</text>
    <circle cx="1015.75" cy="199.034" r="25" fill="#f9e9c3" stroke="#eac170" stroke-width="2" transform="matrix(0.9999999999999999, 0, 0, 0.9999999999999999, 0, 0)"/>
    <text x="1015.75" y="204.034" font-family="Arial" font-size="10" fill="#8b6914" text-anchor="middle" style="white-space: pre; font-size: 10px;" transform="matrix(0.9999999999999999, 0, 0, 0.9999999999999999, 0, 0)">SCRUM</text>
    <text x="1015.75" y="216.034" font-family="Arial" font-size="8" fill="#8b6914" text-anchor="middle" style="white-space: pre; font-size: 8px;" transform="matrix(0.9999999999999999, 0, 0, 0.9999999999999999, 0, 0)">MASTER</text>
    <circle cx="855.474" cy="200.369" r="20" fill="url(#botGradient)" transform="matrix(0.9999999999999999, 0, 0, 0.9999999999999999, 0, 0)"/>
    <circle cx="847.471" cy="193.369" r="5" fill="white" transform="matrix(0.9999999999999999, 0, 0, 0.9999999999999999, 0, 0)"/>
    <circle cx="863.474" cy="193.369" r="5" fill="white" transform="matrix(0.9999999999999999, 0, 0, 0.9999999999999999, 0, 0)"/>
    <path d="M 850.471 205.369 C 850.471 210.369 860.474 210.369 860.474 205.369" stroke="white" stroke-width="2" fill="none" transform="matrix(0.9999999999999999, 0, 0, 0.9999999999999999, 0, 0)"/>
    <line x1="838.16" y1="191.046" x2="674.217" y2="57.033" stroke="url(#connectionGradient)" stroke-width="3" stroke-dasharray="5 3" style="" transform="matrix(0.9999999999999999, 0, 0, 0.9999999999999999, 0, 0)"/>
    <rect x="441.617" y="-203.63" width="359.343" height="50" rx="25" fill="white" stroke="#dee6f1" stroke-width="2" style="" transform="matrix(0.9999999999999999, 0, 0, 0.9999999999999999, 0, 0)"/>
    <circle cx="476.617" cy="-178.63" r="15" fill="#66bb6a" transform="matrix(0.9999999999999999, 0, 0, 0.9999999999999999, 0, 0)"/>
    <text x="476.617" y="-174.63" font-family="Arial" font-size="12" fill="white" text-anchor="middle" style="white-space: pre; font-size: 12px;" transform="matrix(0.9999999999999999, 0, 0, 0.9999999999999999, 0, 0)">1</text>
    <text x="506.617" y="-174.63" font-family="Arial" font-size="10" fill="#555" text-anchor="start" style="white-space: pre; font-size: 10px;" transform="matrix(0.9999999999999999, 0, 0, 0.9999999999999999, 0, 0)">Plan</text>
    <circle cx="561.617" cy="-178.63" r="15" fill="#ffa726" transform="matrix(0.9999999999999999, 0, 0, 0.9999999999999999, 0, 0)"/>
    <text x="561.617" y="-174.63" font-family="Arial" font-size="12" fill="white" text-anchor="middle" style="white-space: pre; font-size: 12px;" transform="matrix(0.9999999999999999, 0, 0, 0.9999999999999999, 0, 0)">2</text>
    <text x="591.617" y="-174.63" font-family="Arial" font-size="10" fill="#555" text-anchor="start" style="white-space: pre; font-size: 10px;" transform="matrix(0.9999999999999999, 0, 0, 0.9999999999999999, 0, 0)">Build</text>
    <circle cx="646.617" cy="-178.63" r="15" fill="#ef5350" transform="matrix(0.9999999999999999, 0, 0, 0.9999999999999999, 0, 0)"/>
    <text x="646.617" y="-174.63" font-family="Arial" font-size="12" fill="white" text-anchor="middle" style="white-space: pre; font-size: 12px;" transform="matrix(0.9999999999999999, 0, 0, 0.9999999999999999, 0, 0)">3</text>
    <text x="676.617" y="-174.63" font-family="Arial" font-size="10" fill="#555" text-anchor="start" style="white-space: pre; font-size: 10px;" transform="matrix(0.9999999999999999, 0, 0, 0.9999999999999999, 0, 0)">Test</text>
    <circle cx="731.617" cy="-178.63" r="15" fill="#4fc3f7" transform="matrix(0.9999999999999999, 0, 0, 0.9999999999999999, 0, 0)"/>
    <text x="731.617" y="-174.63" font-family="Arial" font-size="12" fill="white" text-anchor="middle" style="white-space: pre; font-size: 12px;" transform="matrix(0.9999999999999999, 0, 0, 0.9999999999999999, 0, 0)">4</text>
    <text x="761.617" y="-174.63" font-family="Arial" font-size="10" fill="#555" text-anchor="start" style="white-space: pre; font-size: 10px;" transform="matrix(0.9999999999999999, 0, 0, 0.9999999999999999, 0, 0)">Deploy</text>
    <g transform="matrix(0.9999999999999999, 0, 0, 0.9999999999999999, 616.6165253015834, 241.36470391399706)">
        <rect x="-200" y="-25" width="400" height="50" rx="5" fill="white" stroke="#dee6f1" stroke-width="2"/>
        <text x="0" y="5" font-family="Arial" font-size="14" fill="#4a6fa5" text-anchor="middle" style="white-space: pre;">SCRUMBOT: 3 blockers identified | 2 tasks completed</text>
    </g>
    <g filter="url(#glow)" transform="matrix(0.937972068786621, 0, 0, 1.0288350582122803, 149.29878457335803, -200.1519652627701)" style="">
        <circle cx="350" cy="175" r="6" fill="#4fc3f7">
            <animate attributeName="cx" from="200" to="450" dur="3s" repeatCount="indefinite"/>
            <animate attributeName="cy" from="125" to="225" dur="3s" repeatCount="indefinite"/>
        </circle>
        <circle cx="650" cy="175" r="6" fill="#4fc3f7">
            <animate attributeName="cx" from="750" to="550" dur="2.5s" repeatCount="indefinite"/>
            <animate attributeName="cy" from="125" to="225" dur="2.5s" repeatCount="indefinite"/>
        </circle>
        <circle cx="350" cy="325" r="6" fill="#4fc3f7">
            <animate attributeName="cx" from="200" to="450" dur="3.5s" repeatCount="indefinite"/>
            <animate attributeName="cy" from="375" to="275" dur="3.5s" repeatCount="indefinite"/>
        </circle>
        <circle cx="650" cy="325" r="6" fill="#4fc3f7">
            <animate attributeName="cx" from="750" to="550" dur="2.8s" repeatCount="indefinite"/>
            <animate attributeName="cy" from="375" to="275" dur="2.8s" repeatCount="indefinite"/>
        </circle>
    </g>
    <g transform="matrix(0.9999999999999999, 0, 0, 0.9999999999999999, 478.64856670273184, -55.955952524482484)">
        <path d="M0,0 L15,0 L15,20 L7.5,15 L0,20 Z" fill="#4a6fa5"/>
        <rect x="-100" y="-30" width="100" height="30" rx="5" fill="#4a6fa5"/>
        <text style="white-space: pre;" x="-50" y="-10" text-anchor="middle" font-size="9" font-family="Arial" fill="white">API status?</text>
    </g>
    <g transform="matrix(0.9999999999999999, 0, 0, 0.9999999999999999, 707.8711042981013, -61.32468887157279)">
        <path d="M0,0 L-15,0 L-15,20 L-7.5,15 L0,20 Z" fill="#4fc3f7"/>
        <rect x="0" y="-30" width="140" height="30" rx="5" fill="#4fc3f7"/>
        <text x="70" y="-10" font-family="Arial" font-size="9" fill="white" text-anchor="middle" style="white-space: pre;">75% complete, ETA 1 day</text>
    </g>
    <text x="616.616" y="261.364" font-family="Arial" font-size="14" fill="#555" text-anchor="middle" font-weight="bold" style="white-space: pre; font-size: 14px;" transform="matrix(0.9999999999999999, 0, 0, 0.9999999999999999, 0, 0)">Scrumbot: Coordinating Agile Teams Across Time Zones</text>
</svg>